<?xml version="1.0" encoding="UTF-8"?>
<svg id="Layer_2" data-name="Layer 2" xmlns="http://www.w3.org/2000/svg" viewBox="0 0 1005.14 130.91">
  <defs>
    <style>
      .cls-1 {
        fill: #fff;
      }
    </style>
  </defs>
  <g id="Layer_1-2" data-name="Layer 1">
    <g>
      <path class="cls-1" d="M119.85,32.55c-5.85-9.57-13.98-16.99-24.36-22.28-10.39-5.27-22.14-7.92-35.26-7.92H0v126.73h60.23c13.12,0,24.87-2.63,35.26-7.92,10.38-5.27,18.51-12.71,24.36-22.28,5.86-9.58,8.79-20.63,8.79-33.16s-2.93-23.59-8.79-33.17ZM84.87,83.3c-2.39,5.11-5.81,9.08-10.27,11.93-4.47,2.84-9.72,4.26-15.76,4.26h-21.24V31.95h21.24c6.04,0,11.29,1.42,15.76,4.26,4.46,2.85,7.88,6.82,10.27,11.93,2.38,5.11,3.56,10.96,3.56,17.58s-1.18,12.48-3.56,17.58Z"/>
      <polygon class="cls-1" points="363.88 3.79 321.55 127.68 283.95 127.68 241.62 3.79 278.14 3.79 303.75 90.98 305.18 95.99 306.65 90.98 310.67 77.32 332.27 3.79 363.88 3.79"/>
      <polygon class="cls-1" points="493.03 3.79 493.03 127.68 463.24 127.68 406.75 55.2 406.75 127.68 376.23 127.68 376.23 3.79 409.65 3.79 452.53 58.82 452.77 59.13 459.61 68.01 462.51 71.77 462.51 3.79 493.03 3.79"/>
      <polygon class="cls-1" points="716.86 2.35 716.86 31.95 684.29 31.95 684.29 129.08 646.7 129.08 646.7 31.95 614.32 31.95 614.32 2.35 716.86 2.35"/>
      <path class="cls-1" d="M728.69,2.35v126.73h37.6V2.35h-37.6Z"/>
      <polygon class="cls-1" points="902.66 129.13 859.6 129.13 831.08 83.54 826.7 88.93 826.7 44.64 861.42 2.34 901.2 2.34 856.52 56.83 902.66 129.13"/>
      <rect class="cls-1" x="786.58" y="3.79" width="34.7" height="123.89"/>
      <path class="cls-1" d="M994.7,62.75c-6.97-5.86-18.17-10.41-33.6-13.67l-4.18-.87c-3.13-.69-5.69-1.36-7.66-2-1.97-.63-3.6-1.59-4.87-2.87-1.28-1.27-1.92-2.9-1.92-4.87,0-1.74.55-3.31,1.66-4.71,1.1-1.39,2.7-2.49,4.78-3.3,2.09-.81,4.64-1.22,7.66-1.22,5.34,0,11.43,1.05,18.28,3.13l25.94-18.28c-6.04-3.82-12.94-7.13-20.72-9.91-7.77-2.79-16.48-4.18-26.11-4.18s-18.68,1.68-26.46,5.04c-7.77,3.37-13.84,8.27-18.19,14.71s-6.53,14.19-6.53,23.24c0,7.2,1.48,13.23,4.44,18.1,2.96,4.88,7.63,8.92,14.02,12.1,6.37,3.19,14.91,5.95,25.59,8.28l4,.87c4.99,1.04,8.67,2.23,11.05,3.56,2.37,1.34,3.57,3.46,3.57,6.36,0,1.74-.55,3.3-1.66,4.69-1.1,1.4-2.76,2.53-4.95,3.4-2.21.87-4.88,1.3-8.01,1.3-3.66,0-7.38-.35-11.16-1.07-3.79-.7-7.64-1.77-11.56-3.19l-27.42,16.8c4.99,4.3,12.24,8.16,21.76,11.58s19.79,5.14,30.81,5.14c10.21,0,19.24-1.64,27.08-4.88,7.83-3.25,13.92-8.1,18.28-14.54,4.34-6.44,6.52-14.18,6.52-23.24,0-11.14-3.48-19.64-10.44-25.5Z"/>
      <polygon class="cls-1" points="236.4 99.49 236.4 129.08 142.92 129.08 142.92 2.35 234.66 2.35 234.66 31.95 172.14 31.95 172.14 50.22 229.44 50.22 229.44 78.77 172.14 78.77 172.14 99.49 236.4 99.49"/>
      <polygon class="cls-1" points="606.84 99.49 606.84 129.08 513.36 129.08 513.36 2.35 605.1 2.35 605.1 31.95 542.58 31.95 542.58 50.22 599.87 50.22 599.87 78.77 542.58 78.77 542.58 99.49 606.84 99.49"/>
    </g>
  </g>
</svg>