<?xml version="1.0" encoding="UTF-8"?>
<svg id="Layer_2" data-name="Layer 2" xmlns="http://www.w3.org/2000/svg" viewBox="0 0 1005.14 130.91">
  <defs>
    <style>
      .cls-1 {
        fill: #fff;
      }
    </style>
  </defs>
  <g id="Layer_1-2" data-name="Layer 1">
    <path class="cls-1" d="M0,2.36h60.23c13.12,0,24.87,2.64,35.26,7.92,10.39,5.29,18.51,12.71,24.37,22.28,5.86,9.58,8.79,20.63,8.79,33.16s-2.93,23.58-8.79,33.16c-5.85,9.57-13.98,17-24.37,22.28-10.39,5.29-22.14,7.92-35.26,7.92H0V2.36ZM23.85,99.5h34.98c6.04,0,11.29-1.43,15.76-4.27,4.46-2.85,7.89-6.82,10.27-11.93,2.38-5.1,3.57-10.96,3.57-17.58s-1.19-12.47-3.57-17.58c-2.39-5.11-5.81-9.08-10.27-11.93-4.47-2.84-9.72-4.26-15.76-4.26H24.02l13.58-10.1v87.74l-13.75-10.09Z"/>
    <g>
      <polygon class="cls-1" points="363.87 3.79 321.55 127.68 317.37 127.68 306.65 90.98 332.26 3.79 363.87 3.79"/>
      <path class="cls-1" d="M306.65,101.15l7.63,26.52h.18l-7.81-26.52Z"/>
    </g>
    <polygon class="cls-1" points="314.46 127.68 283.94 127.68 241.62 3.79 278.13 3.79 303.75 90.98 306.65 101.15 314.46 127.68"/>
    <g>
      <polygon class="cls-1" points="493.03 110.96 493.03 127.68 463.24 127.68 406.74 55.2 406.74 127.68 376.22 127.68 376.22 3.79 409.65 3.79 459.6 67.91 459.6 68.09 469.23 80.45 493.03 110.96"/>
      <path class="cls-1" d="M471.96,79.36l21.07,27.07v-.36l-30.52-39.06,9.45,12.35Z"/>
    </g>
    <polygon class="cls-1" points="493.03 3.79 493.03 106.42 471.96 79.36 462.51 67 462.51 3.79 493.03 3.79"/>
    <path class="cls-1" d="M614.32,2.36h102.53v29.6h-102.53V2.36ZM646.69,18.2h37.6v110.89h-37.6V18.2Z"/>
    <path class="cls-1" d="M728.68,2.36h37.6v126.73h-37.6V2.36Z"/>
    <polygon class="cls-1" points="898.33 129.13 855.28 129.13 826.76 83.53 819.68 92.25 819.68 47.93 857.1 2.34 896.88 2.34 852.2 56.83 898.33 129.13"/>
    <rect class="cls-1" x="786.58" y="3.79" width="34.7" height="123.89"/>
    <path class="cls-1" d="M922.45,125.77c-9.52-3.42-16.77-7.28-21.76-11.58l27.42-16.8h0c7.83,2.85,15.41,4.27,22.72,4.27,3.13,0,5.8-.43,8.01-1.3,2.2-.87,3.86-2,4.96-3.4,1.11-1.39,1.66-2.95,1.66-4.69,0-2.9-1.2-5.02-3.57-6.36-2.38-1.33-6.06-2.52-11.05-3.57l-4-.87c-10.68-2.32-19.21-5.08-25.59-8.28-6.39-3.18-11.05-7.22-14.01-12.1-2.96-4.87-4.44-10.9-4.44-18.1,0-9.05,2.18-16.8,6.53-23.24,4.36-6.44,10.42-11.34,18.19-14.71,7.78-3.36,16.6-5.05,26.46-5.05s18.34,1.39,26.11,4.18c7.78,2.79,14.68,6.09,20.72,9.92l-25.94,18.28s0,0,0,0c-6.86-2.08-12.94-3.13-18.28-3.13-3.02,0-5.57.41-7.66,1.22-2.08.82-3.68,1.92-4.78,3.31-1.11,1.39-1.66,2.96-1.66,4.7,0,1.98.64,3.6,1.92,4.88s2.9,2.24,4.88,2.86c1.97.64,4.52,1.31,7.65,2l4.18.87c15.43,3.26,26.64,7.81,33.6,13.67,6.96,5.86,10.45,14.36,10.45,25.5,0,9.06-2.18,16.8-6.53,23.24-4.36,6.44-10.45,11.29-18.28,14.54s-16.86,4.88-27.07,4.88c-11.03,0-21.3-1.72-30.81-5.14Z"/>
    <g>
      <polygon class="cls-1" points="166.94 31.95 234.66 31.95 234.66 2.36 142.92 2.36 142.92 31.95 166.94 31.95"/>
      <polygon class="cls-1" points="234.66 99.5 166.94 99.5 142.92 99.5 142.92 129.09 236.4 129.09 236.4 99.5 234.66 99.5"/>
      <polygon class="cls-1" points="160.68 50.23 142.92 50.23 142.92 78.78 160.68 78.78 229.43 78.78 229.43 50.23 160.68 50.23"/>
    </g>
    <g>
      <polygon class="cls-1" points="531.11 50.23 513.35 50.23 513.35 78.78 531.11 78.78 599.87 78.78 599.87 50.23 531.11 50.23"/>
      <polygon class="cls-1" points="537.37 31.95 605.09 31.95 605.09 2.36 513.35 2.36 513.35 31.95 537.37 31.95"/>
      <polygon class="cls-1" points="537.37 99.5 513.35 99.5 513.35 129.09 606.83 129.09 606.83 99.5 537.37 99.5"/>
    </g>
  </g>
</svg>