<?xml version="1.0" encoding="UTF-8"?>
<svg id="Layer_2" data-name="Layer 2" xmlns="http://www.w3.org/2000/svg" viewBox="0 0 2571.58 1712.76">
  <defs>
    <style>
      .cls-1 {
        fill: #fb7185;
      }
    </style>
  </defs>
  <g id="Layer_1-2" data-name="Layer 1">
    <g>
      <path class="cls-1" d="M2237.9,2.49c-1.39-1.39-5.4,2.65-4.04,4.01s5.4-2.65,4.04-4.01Z"/>
      <path class="cls-1" d="M418.09.22c-1.15-.75-5.32.58-5.35,1.99-.08,3.56,8.38-.01,5.35-1.99Z"/>
      <path class="cls-1" d="M2394.01,12.56l4.03-4.01c-2.59,1.37-4.89.73-4.03,4.01Z"/>
      <path class="cls-1" d="M330.57,5.23c-.16-.13-3.87-.14-4.02-.02-4.24,3.44,8.23,3.49,4.02.02Z"/>
      <path class="cls-1" d="M1130.05,20.71c-.16-.13-3.87-.14-4.02-.02-4.24,3.44,8.23,3.49,4.02.02Z"/>
      <path class="cls-1" d="M1995.52,25.7c-.16-.13-3.87-.14-4.02-.02-4.24,3.44,8.23,3.49,4.02.02Z"/>
      <path class="cls-1" d="M295.5,23.93c-.16-.13-3.87-.14-4.02-.02-4.24,3.44,8.23,3.49,4.02.02Z"/>
      <path class="cls-1" d="M864.79,41.12c5.72-5.64-7.9-3.26-4.02-.02.15.13,3.88.16,4.02.02Z"/>
      <path class="cls-1" d="M2554.04,44.21c-.16-.13-3.87-.14-4.02-.02-4.24,3.44,8.23,3.49,4.02.02Z"/>
      <path class="cls-1" d="M2171.77,43.94c-.16-.13-3.87-.14-4.02-.02-4.24,3.44,8.23,3.49,4.02.02Z"/>
      <path class="cls-1" d="M2175.78,50.69c-.16-.13-3.87-.14-4.02-.02-4.24,3.44,8.23,3.49,4.02.02Z"/>
      <path class="cls-1" d="M2127.31,53.18c-2.05-2.07-5.74,4.06-2.03,3.99.88-.02,2.82-3.19,2.03-3.99Z"/>
      <path class="cls-1" d="M1314.32,52.45c-2.05-2.07-5.74,4.06-2.03,3.99.88-.02,2.82-3.19,2.03-3.99Z"/>
      <path class="cls-1" d="M1466.4,57.13c-.16-.13-3.87-.14-4.02-.02-4.24,3.44,8.23,3.49,4.02.02Z"/>
      <path class="cls-1" d="M455.45,77.1c-1.39-1.39-5.4,2.65-4.04,4.01s5.4-2.65,4.04-4.01Z"/>
      <path class="cls-1" d="M2440.76,94.86c5.72-5.64-7.9-3.26-4.02-.02.15.13,3.88.16,4.02.02Z"/>
      <path class="cls-1" d="M678.85,87.46c-.16-.13-3.87-.14-4.02-.02-4.24,3.44,8.23,3.49,4.02.02Z"/>
      <path class="cls-1" d="M1443.37,92.02c-1.39-1.39-5.4,2.65-4.04,4.01s5.4-2.65,4.04-4.01Z"/>
      <path class="cls-1" d="M945.33,93.97c-.16-.13-3.87-.14-4.02-.02-4.24,3.44,8.23,3.49,4.02.02Z"/>
      <path class="cls-1" d="M715.12,105.11c-1.39-1.39-5.4,2.65-4.04,4.01s5.4-2.65,4.04-4.01Z"/>
      <path class="cls-1" d="M545.51,107.09c-4.36-.46-4.46-.36-4.04,4.01l4.04-4.01Z"/>
      <path class="cls-1" d="M1079.85,114.72c-.16-.13-3.87-.14-4.02-.02-4.24,3.44,8.23,3.49,4.02.02Z"/>
      <path class="cls-1" d="M1248.06,124.85c-.16-.13-3.87-.14-4.02-.02-4.24,3.44,8.23,3.49,4.02.02Z"/>
      <path class="cls-1" d="M31.27,121.08c-.16-.13-3.87-.14-4.02-.02-4.24,3.44,8.23,3.49,4.02.02Z"/>
      <path class="cls-1" d="M195.47,123.11l-4.04,4.01c4.36.46,4.46.36,4.04-4.01Z"/>
      <path class="cls-1" d="M101.23,129.45c-1.39-1.39-5.4,2.65-4.04,4.01s5.4-2.65,4.04-4.01Z"/>
      <path class="cls-1" d="M416.19,130.77c-1.39-1.39-5.4,2.65-4.04,4.01s5.4-2.65,4.04-4.01Z"/>
      <path class="cls-1" d="M1653.16,137.33l-4.03,4.01c2.59-1.37,4.89-.73,4.03-4.01Z"/>
      <path class="cls-1" d="M1093.2,140.35c-.16-.13-3.87-.14-4.02-.02-4.24,3.44,8.23,3.49,4.02.02Z"/>
      <path class="cls-1" d="M569.54,152.96c-.16-.13-3.87-.14-4.02-.02-4.24,3.44,8.23,3.49,4.02.02Z"/>
      <path class="cls-1" d="M973.34,154.66c-1.39-1.39-5.4,2.65-4.04,4.01s5.4-2.65,4.04-4.01Z"/>
      <path class="cls-1" d="M2453.93,163.58c-.16-.13-3.87-.14-4.02-.02-4.24,3.44,8.23,3.49,4.02.02Z"/>
      <path class="cls-1" d="M2199.47,178.66c-.16-.13-3.87-.14-4.02-.02-4.24,3.44,8.23,3.49,4.02.02Z"/>
      <path class="cls-1" d="M51.25,170.96c-3.44-4.24-3.49,8.23-.02,4.02.13-.16.14-3.87.02-4.02Z"/>
      <path class="cls-1" d="M817.12,179.56c2.05,2.07,5.74-4.06,2.03-3.99-.88.02-2.82,3.19-2.03,3.99Z"/>
      <path class="cls-1" d="M156.23,174.1c-2.05-2.07-5.74,4.06-2.03,3.99.88-.02,2.82-3.19,2.03-3.99Z"/>
      <path class="cls-1" d="M2155,189.24c-1.39-1.39-5.4,2.65-4.04,4.01,1.39,1.39,5.4-2.65,4.04-4.01Z"/>
      <path class="cls-1" d="M2233.07,190.92c-.62-.55-4.6-.99-4.02,1.97.78,4.05,5.75-.43,4.02-1.97Z"/>
      <path class="cls-1" d="M436.13,190.08c-.16-.13-3.87-.14-4.02-.02-4.24,3.44,8.23,3.49,4.02.02Z"/>
      <path class="cls-1" d="M1424.09,194.24c-1.39-1.39-5.4,2.65-4.04,4.01s5.4-2.65,4.04-4.01Z"/>
      <path class="cls-1" d="M1623.29,197.77c-2.39-1.99-6,1.66-4.03,4.01.22.26,6.3-2.12,4.03-4.01Z"/>
      <path class="cls-1" d="M53.84,195.2c-4.36-.46-4.46-.36-4.04,4.01l4.04-4.01Z"/>
      <path class="cls-1" d="M1791.52,202.52c-1.39-1.39-5.4,2.65-4.04,4.01s5.4-2.65,4.04-4.01Z"/>
      <path class="cls-1" d="M1907.28,203.01c-.16-.13-3.87-.14-4.02-.02-4.24,3.44,8.23,3.49,4.02.02Z"/>
      <path class="cls-1" d="M1366.14,210.14c1.74-2.01-3.71-5.62-5.35-4.05-3.61,3.47,4.86,4.61,5.35,4.05Z"/>
      <path class="cls-1" d="M2226.17,229.92c-1.39-1.39-5.4,2.65-4.04,4.01,1.39,1.39,5.4-2.65,4.04-4.01Z"/>
      <path class="cls-1" d="M411.72,233.04c2.2-2.03-1.17-6.94-4.03-.02,1.09-.12,3.72.31,4.03.02Z"/>
      <path class="cls-1" d="M929.93,235.22c5.72-5.64-7.9-3.26-4.02-.02.15.13,3.88.16,4.02.02Z"/>
      <path class="cls-1" d="M680.93,234.16c1.22-2.54-4.94-2.24-5.38-1.34-1.22,2.54,4.94,2.24,5.38,1.34Z"/>
      <path class="cls-1" d="M1861.35,241.85c-1.5-1.34-6.78,1.33-5.38,4,1.99,3.81,7.26-2.32,5.38-4Z"/>
      <path class="cls-1" d="M2313.61,243.75c-.16-.13-3.87-.14-4.02-.02-4.24,3.44,8.23,3.49,4.02.02Z"/>
      <path class="cls-1" d="M765.67,246.66c-1.39-1.39-5.4,2.65-4.04,4.01s5.4-2.65,4.04-4.01Z"/>
      <path class="cls-1" d="M947.36,251.46c-.16-.13-3.87-.14-4.02-.02-4.24,3.44,8.23,3.49,4.02.02Z"/>
      <path class="cls-1" d="M1407.66,260.13c-.62-.55-4.6-.99-4.02,1.97.78,4.05,5.75-.43,4.02-1.97Z"/>
      <path class="cls-1" d="M1065.74,268.09c5.72-5.64-7.9-3.26-4.02-.02.15.13,3.88.16,4.02.02Z"/>
      <path class="cls-1" d="M609.44,270.22c-.35-.24,1.61-4.03-4.02-2.7v2.68c1.08.25,3.52-.32,4.02.03.3.21,2.56,7.45,4.01,2.01.95-3.58-2.94-1.28-4.01-2.01Z"/>
      <path class="cls-1" d="M2549.95,275.92c-12.11,4.26.25,22.24,9.85,4.53l-2.71-4.03c-1.98-.98-5.07-1.22-7.14-.49Z"/>
      <path class="cls-1" d="M1641.77,285.34c-.16-.13-3.87-.14-4.02-.02-4.24,3.44,8.23,3.49,4.02.02Z"/>
      <path class="cls-1" d="M1725.19,292.42c-.16-.13-3.87-.14-4.02-.02-4.24,3.44,8.23,3.49,4.02.02Z"/>
      <path class="cls-1" d="M2437.22,296.77c-.16-.13-3.87-.14-4.02-.02-4.24,3.44,8.23,3.49,4.02.02Z"/>
      <path class="cls-1" d="M299.76,290.46c-1.39-1.39-5.4,2.65-4.04,4.01s5.4-2.65,4.04-4.01Z"/>
      <path class="cls-1" d="M651.04,297.32c-2.05-2.07-5.74,4.06-2.03,3.99.88-.02,2.82-3.19,2.03-3.99Z"/>
      <path class="cls-1" d="M582.39,299.73c-1.41-.92-5.2.4-5.39,2.65,2.02,1.04,8.45-.65,5.39-2.65Z"/>
      <path class="cls-1" d="M142.23,300.57c-3.44-4.24-3.49,8.23-.02,4.02.13-.16.14-3.87.02-4.02Z"/>
      <path class="cls-1" d="M774.84,305.92c-.16-.13-3.87-.14-4.02-.02-4.24,3.44,8.23,3.49,4.02.02Z"/>
      <path class="cls-1" d="M599.82,317.31c-7.23-1.82-7.09,4.19-2.05,2.65.56-.17,2.06-1.77,2.05-2.65Z"/>
      <path class="cls-1" d="M1103.2,320.76c-.11-.24-3.85,1.05-5.18.08-5.83,12.33,7.89,6,5.18-.08Z"/>
      <path class="cls-1" d="M167.71,323.55c-.16-.13-3.87-.14-4.02-.02-4.24,3.44,8.23,3.49,4.02.02Z"/>
      <path class="cls-1" d="M84.24,328.59c-.62-.55-4.6-.99-4.02,1.97.78,4.05,5.75-.43,4.02-1.97Z"/>
      <path class="cls-1" d="M2227.05,344.32c.8.84,3.4-.82,4.03-2.02l-2-3.34c-.71-.15-2.53,4.82-2.03,5.36Z"/>
      <path class="cls-1" d="M2512.41,341.5c-.16-.13-3.87-.14-4.02-.02-4.24,3.44,8.23,3.49,4.02.02Z"/>
      <path class="cls-1" d="M1842.08,344.06l-4.04,4.01c4.36.46,4.46.36,4.04-4.01Z"/>
      <path class="cls-1" d="M2471.99,350.75c-.16-.13-3.87-.14-4.02-.02-4.24,3.44,8.23,3.49,4.02.02Z"/>
      <path class="cls-1" d="M2111.21,364.02c2.05,2.07,5.74-4.06,2.03-3.99-.88.02-2.82,3.19-2.03,3.99Z"/>
      <path class="cls-1" d="M579.42,367.02c-4.36-.47-4.48-.36-4.04,4.01l4.04-4.01Z"/>
      <path class="cls-1" d="M2205.37,379.23c2.05,2.07,5.74-4.06,2.03-3.99-.88.02-2.82,3.19-2.03,3.99Z"/>
      <path class="cls-1" d="M1214.71,372.38c-.16-.13-3.87-.14-4.02-.02-4.24,3.44,8.23,3.49,4.02.02Z"/>
      <path class="cls-1" d="M747.64,373.11c-.16-.13-3.87-.14-4.02-.02-4.24,3.44,8.23,3.49,4.02.02Z"/>
      <path class="cls-1" d="M11.37,371.35c-1.88-2.29-4.31,3.77-4.05,4,2.33,1.99,6.02-1.59,4.05-4Z"/>
      <path class="cls-1" d="M543.04,377.61c2.05,2.07,5.74-4.06,2.03-3.99-.88.02-2.82,3.19-2.03,3.99Z"/>
      <path class="cls-1" d="M2127.28,380.26c-.16-.13-3.87-.14-4.02-.02-4.24,3.44,8.23,3.49,4.02.02Z"/>
      <path class="cls-1" d="M1960.36,383.6c-.16-.13-3.87-.14-4.02-.02-4.24,3.44,8.23,3.49,4.02.02Z"/>
      <path class="cls-1" d="M1889.02,384.64c-2.39-1.99-6,1.66-4.03,4.01.22.26,6.3-2.12,4.03-4.01Z"/>
      <path class="cls-1" d="M2069.33,396.17c-.16-.13-3.87-.14-4.02-.02-4.24,3.44,8.23,3.49,4.02.02Z"/>
      <path class="cls-1" d="M1977.79,399.82c-.16-.13-3.87-.14-4.02-.02-4.24,3.44,8.23,3.49,4.02.02Z"/>
      <path class="cls-1" d="M1578.01,403.52c-.16-.13-3.87-.14-4.02-.02-4.24,3.44,8.23,3.49,4.02.02Z"/>
      <path class="cls-1" d="M863.26,404.55c-.16-.13-3.87-.14-4.02-.02-4.24,3.44,8.23,3.49,4.02.02Z"/>
      <path class="cls-1" d="M306.01,403.55c-1.39-1.39-5.4,2.65-4.04,4.01s5.4-2.65,4.04-4.01Z"/>
      <path class="cls-1" d="M2434.03,413.86c-4.36-.46-4.46-.36-4.04,4.01l4.04-4.01Z"/>
      <path class="cls-1" d="M2127.09,426.02c-.16-.13-3.87-.14-4.02-.02-4.24,3.44,8.23,3.49,4.02.02Z"/>
      <path class="cls-1" d="M1280.43,429.19c-.16-.13-3.87-.14-4.02-.02-4.24,3.44,8.23,3.49,4.02.02Z"/>
      <path class="cls-1" d="M2040.91,433.74c-1.39-1.39-5.4,2.65-4.04,4.01s5.4-2.65,4.04-4.01Z"/>
      <path class="cls-1" d="M213.04,427.39c-.8-.84-3.4.82-4.03,2.02l2,3.34c.71.15,2.53-4.82,2.03-5.36Z"/>
      <path class="cls-1" d="M923.72,431.73c-2.05-2.07-5.74,4.06-2.03,3.99.88-.02,2.82-3.19,2.03-3.99Z"/>
      <path class="cls-1" d="M2569.83,449.42c-.16-.13-3.87-.14-4.02-.02-4.24,3.44,8.23,3.49,4.02.02Z"/>
      <path class="cls-1" d="M1025.95,448.31c-.16-.13-3.87-.14-4.02-.02-4.24,3.44,8.23,3.49,4.02.02Z"/>
      <path class="cls-1" d="M474.08,448.68c-2.05-2.07-5.74,4.06-2.03,3.99.88-.02,2.82-3.19,2.03-3.99Z"/>
      <path class="cls-1" d="M2021.94,465.95c2.92-2.82-3.32-10.37-6.68-3.34-2.3,4.82,6.33,3.68,6.68,3.34Z"/>
      <rect class="cls-1" x=".25" y="454.76" width="4.04" height="4.04" transform="translate(-454.51 455.2) rotate(-89.52)"/>
      <path class="cls-1" d="M160.41,459.47c-5.23-.81-4.16.64-4.04,5.35l4-2.7.04-2.65Z"/>
      <path class="cls-1" d="M1503.72,465.13c-5.04-.53-7.76-.12-3.38,3.98l3.38-3.98Z"/>
      <path class="cls-1" d="M1116.06,464.84c-.16-.13-3.87-.14-4.02-.02-4.24,3.44,8.23,3.49,4.02.02Z"/>
      <path class="cls-1" d="M2103.92,493.23c-.16-.13-3.87-.14-4.02-.02-4.24,3.44,8.23,3.49,4.02.02Z"/>
      <path class="cls-1" d="M63.34,498.11c-7.23-1.82-7.09,4.19-2.05,2.65.56-.17,2.06-1.77,2.05-2.65Z"/>
      <path class="cls-1" d="M506.16,505.33l4.03-4.01c-2.59,1.37-4.89.73-4.03,4.01Z"/>
      <path class="cls-1" d="M1416.01,515.91l-4.04,4.01c4.36.46,4.46.36,4.04-4.01Z"/>
      <path class="cls-1" d="M2373.01,519.94c-.16-.13-3.87-.14-4.02-.02-4.24,3.44,8.23,3.49,4.02.02Z"/>
      <path class="cls-1" d="M432.06,518.49c-2.05-2.07-5.74,4.06-2.03,3.99.88-.02,2.82-3.19,2.03-3.99Z"/>
      <path class="cls-1" d="M537.02,525.65c5.72-5.64-7.9-3.26-4.02-.02.15.13,3.88.16,4.02.02Z"/>
      <path class="cls-1" d="M1424.02,530.75c-2.07-1.78-7.1,2.53-5.39,4,2.07,1.78,7.1-2.53,5.39-4Z"/>
      <path class="cls-1" d="M989.25,536.98c3.56.31,4.54-2.31,4.04-5.36l-4.04,5.36Z"/>
      <path class="cls-1" d="M1568.04,534.05c-2.14-1.73-7.06,2.45-5.39,3.99,2.64,2.44,5.94-3.55,5.39-3.99Z"/>
      <path class="cls-1" d="M2070.08,538.85c-.16-.13-3.87-.14-4.02-.02-4.24,3.44,8.23,3.49,4.02.02Z"/>
      <path class="cls-1" d="M2255.83,539.63c-1.41-.92-5.2.4-5.39,2.65,2.02,1.04,8.45-.65,5.39-2.65Z"/>
      <path class="cls-1" d="M460.24,538.8c-1.39-1.39-5.4,2.65-4.04,4.01s5.4-2.65,4.04-4.01Z"/>
      <path class="cls-1" d="M586.75,542.03c-1.39-1.39-5.4,2.65-4.04,4.01s5.4-2.65,4.04-4.01Z"/>
      <path class="cls-1" d="M884.22,543.28c-.16-.13-3.87-.14-4.02-.02-4.24,3.44,8.23,3.49,4.02.02Z"/>
      <path class="cls-1" d="M540.96,547.22c-4.36-.46-4.46-.36-4.04,4.01l4.04-4.01Z"/>
      <path class="cls-1" d="M741.51,549.41c-.16-.13-3.87-.14-4.02-.02-4.24,3.44,8.23,3.49,4.02.02Z"/>
      <path class="cls-1" d="M1356.59,561.42l-4.04,4.01c4.36.46,4.46.36,4.04-4.01Z"/>
      <path class="cls-1" d="M2399.74,567.16c-1.39-1.39-5.4,2.65-4.04,4.01s5.4-2.65,4.04-4.01Z"/>
      <rect class="cls-1" x="702.4" y="566.74" width="5.39" height="5.39" transform="translate(2.28 -2.81) rotate(.23)"/>
      <path class="cls-1" d="M629.71,567.78c-1.41-.92-5.2.4-5.39,2.65,2.02,1.04,8.45-.65,5.39-2.65Z"/>
      <path class="cls-1" d="M982.35,571.96c-.16-.13-3.87-.14-4.02-.02-4.24,3.44,8.23,3.49,4.02.02Z"/>
      <path class="cls-1" d="M2099.47,591.47c-.16-.13-3.87-.14-4.02-.02-4.24,3.44,8.23,3.49,4.02.02Z"/>
      <path class="cls-1" d="M2228.68,593.36c-.16-.13-3.87-.14-4.02-.02-4.24,3.44,8.23,3.49,4.02.02Z"/>
      <path class="cls-1" d="M241.98,591.71l4.03-4.01c-2.59,1.37-4.89.73-4.03,4.01Z"/>
      <path class="cls-1" d="M1643.12,600.31c.3-.12,1.77-5.4-.63-5.35-3.07.06-1.64,6.31.63,5.35Z"/>
      <path class="cls-1" d="M2017.34,601.88c.74.96,4.1-3.53,2.68-5.37-.74-.96-4.1,3.53-2.68,5.37Z"/>
      <path class="cls-1" d="M33.32,593.54c-2.39-1.99-6,1.66-4.03,4.01.22.26,6.3-2.12,4.03-4.01Z"/>
      <path class="cls-1" d="M687.43,605.71c-1.39-1.39-5.4,2.65-4.04,4.01s5.4-2.65,4.04-4.01Z"/>
      <path class="cls-1" d="M1445.22,610.25c-.16-.13-3.87-.14-4.02-.02-4.24,3.44,8.23,3.49,4.02.02Z"/>
      <path class="cls-1" d="M2396.82,620.99c-4.36-.46-4.46-.36-4.04,4.01l4.04-4.01Z"/>
      <path class="cls-1" d="M917.56,616.11c-4.36-.46-4.46-.36-4.04,4.01l4.04-4.01Z"/>
      <polygon class="cls-1" points="1443.84 619.67 1437.12 621.64 1441.73 623.62 1443.84 619.67"/>
      <path class="cls-1" d="M2077.8,623.68c-.16-.13-3.87-.14-4.02-.02-4.24,3.44,8.23,3.49,4.02.02Z"/>
      <path class="cls-1" d="M1501.69,625.29c-1.39-1.39-5.4,2.65-4.04,4.01s5.4-2.65,4.04-4.01Z"/>
      <path class="cls-1" d="M2056.17,647.83c-7.23-1.82-7.09,4.19-2.05,2.65.56-.17,2.06-1.77,2.05-2.65Z"/>
      <path class="cls-1" d="M2443.8,650.8c-.16-.13-3.87-.14-4.02-.02-4.24,3.44,8.23,3.49,4.02.02Z"/>
      <path class="cls-1" d="M776.08,654.52c1.78,3.08,7.76-1.34,6.73-5.34l-6.73,1.33c.2,1.15-.35,3.42,0,4.01Z"/>
      <path class="cls-1" d="M831.23,658.82c-.16-.13-3.87-.14-4.02-.02-4.24,3.44,8.23,3.49,4.02.02Z"/>
      <path class="cls-1" d="M767.94,666.61c5.72-5.64-7.9-3.26-4.02-.02.15.13,3.88.16,4.02.02Z"/>
      <path class="cls-1" d="M1846.09,668.47c-.16-.13-3.87-.14-4.02-.02-4.24,3.44,8.23,3.49,4.02.02Z"/>
      <path class="cls-1" d="M1081.54,671.98c-.62-.55-4.6-.99-4.02,1.97.78,4.05,5.75-.43,4.02-1.97Z"/>
      <path class="cls-1" d="M117.8,669.27c-1.39-1.39-5.4,2.65-4.04,4.01s5.4-2.65,4.04-4.01Z"/>
      <path class="cls-1" d="M2414.05,682.98c-.16-.13-3.87-.14-4.02-.02-4.24,3.44,8.23,3.49,4.02.02Z"/>
      <path class="cls-1" d="M1880.99,692.83c1.74-1.52-3.19-6.05-4.01-2-.6,2.96,3.38,2.55,4.01,2Z"/>
      <path class="cls-1" d="M1257.8,687.53c-.16-.13-3.87-.14-4.02-.02-4.24,3.44,8.23,3.49,4.02.02Z"/>
      <path class="cls-1" d="M1568.71,696.9c.8.84,3.4-.82,4.03-2.02l-2-3.34c-.71-.15-2.53,4.82-2.03,5.36Z"/>
      <path class="cls-1" d="M295.4,687.52c-.16-.13-3.87-.14-4.02-.02-4.24,3.44,8.23,3.49,4.02.02Z"/>
      <path class="cls-1" d="M789.38,689.6c-.16-.13-3.87-.14-4.02-.02-4.24,3.44,8.23,3.49,4.02.02Z"/>
      <path class="cls-1" d="M1338.55,691.91c-.16-.13-3.87-.14-4.02-.02-4.24,3.44,8.23,3.49,4.02.02Z"/>
      <path class="cls-1" d="M2280.74,698.58c-3.04-.52-5.68.42-5.39,3.99l5.39-3.99Z"/>
      <path class="cls-1" d="M1221.41,699.49c-2.39-1.99-6,1.66-4.03,4.01.22.26,6.3-2.12,4.03-4.01Z"/>
      <path class="cls-1" d="M1357.36,700.06c-.16-.13-3.87-.14-4.02-.02-4.24,3.44,8.23,3.49,4.02.02Z"/>
      <path class="cls-1" d="M1489.26,700.62l-4.03,4.01c2.59-1.37,4.89-.73,4.03-4.01Z"/>
      <path class="cls-1" d="M1286.01,701.11l-4.04,4.01c4.36.46,4.46.36,4.04-4.01Z"/>
      <path class="cls-1" d="M1307.54,702.55c-.16-.13-3.87-.14-4.02-.02-4.24,3.44,8.23,3.49,4.02.02Z"/>
      <path class="cls-1" d="M2280.71,706.65c-2.14-1.73-7.06,2.45-5.39,3.99,2.64,2.44,5.94-3.55,5.39-3.99Z"/>
      <path class="cls-1" d="M327.64,701.11c-.16-.13-3.87-.14-4.02-.02-4.24,3.44,8.23,3.49,4.02.02Z"/>
      <path class="cls-1" d="M244.17,704.8c-3.79.33-6.36,1.01-5.4,5.35l8.08.02-2.67-5.38Z"/>
      <path class="cls-1" d="M1333.08,714.75l4.03-4.01c-2.59,1.37-4.89.73-4.03,4.01Z"/>
      <path class="cls-1" d="M875.44,710.15c-.16-.13-3.87-.14-4.02-.02-4.24,3.44,8.23,3.49,4.02.02Z"/>
      <path class="cls-1" d="M390.86,712.15c-.16-.13-3.87-.14-4.02-.02-4.24,3.44,8.23,3.49,4.02.02Z"/>
      <path class="cls-1" d="M1831.06,722.25c-4.36-.46-4.46-.36-4.04,4.01l4.04-4.01Z"/>
      <path class="cls-1" d="M2378.88,724.56c-.16-.13-3.87-.14-4.02-.02-4.24,3.44,8.23,3.49,4.02.02Z"/>
      <path class="cls-1" d="M248.16,716.93l-4.04,4.01c4.36.46,4.46.36,4.04-4.01Z"/>
      <path class="cls-1" d="M638.5,718.58c-.16-.13-3.87-.14-4.02-.02-4.24,3.44,8.23,3.49,4.02.02Z"/>
      <path class="cls-1" d="M804.04,723.31c-.16-.13-3.87-.14-4.02-.02-4.24,3.44,8.23,3.49,4.02.02Z"/>
      <path class="cls-1" d="M350.39,733.51c-.16-.13-3.87-.14-4.02-.02-4.24,3.44,8.23,3.49,4.02.02Z"/>
      <path class="cls-1" d="M1256.25,741.35c2.05,2.07,5.74-4.06,2.03-3.99-.88.02-2.82,3.19-2.03,3.99Z"/>
      <path class="cls-1" d="M323.47,736.1c-.98,2.26,5.26,3.74,5.35.68.07-2.4-5.22-.97-5.35-.68Z"/>
      <path class="cls-1" d="M987.02,741.58c-.16-.13-3.87-.14-4.02-.02-4.24,3.44,8.23,3.49,4.02.02Z"/>
      <path class="cls-1" d="M603.41,741.31c-4.36-.46-4.46-.36-4.04,4.01l4.04-4.01Z"/>
      <path class="cls-1" d="M2363.95,755.45c-.16-.13-3.87-.14-4.02-.02-4.24,3.44,8.23,3.49,4.02.02Z"/>
      <path class="cls-1" d="M918.31,757.44c-.79-.8-3.98,1.11-4.01,1.99-.1,3.72,6.06.07,4.01-1.99Z"/>
      <path class="cls-1" d="M1281.73,758.97c-1.52-1.74-6.05,3.19-2,4.01,2.96.6,2.55-3.38,2-4.01Z"/>
      <path class="cls-1" d="M1222.49,761.41c-.16-.13-3.87-.14-4.02-.02-4.24,3.44,8.23,3.49,4.02.02Z"/>
      <path class="cls-1" d="M910.2,768.15c.17-.15-1.68-4.07-1.99-4.02l-2.04,4.01c1.1-.14,3.67.31,4.03,0Z"/>
      <path class="cls-1" d="M401.41,763.34c-1.39-1.39-5.4,2.65-4.04,4.01s5.4-2.65,4.04-4.01Z"/>
      <path class="cls-1" d="M1626.26,771.19l-4.04,4.01c4.36.46,4.46.36,4.04-4.01Z"/>
      <path class="cls-1" d="M2075.78,782.49c5.72-5.64-7.9-3.26-4.02-.02.15.13,3.88.16,4.02.02Z"/>
      <path class="cls-1" d="M2157.84,794.96c-1.41-.92-5.2.4-5.39,2.65,2.02,1.04,8.45-.65,5.39-2.65Z"/>
      <path class="cls-1" d="M1460.61,793.37c-.16-.13-3.87-.14-4.02-.02-4.24,3.44,8.23,3.49,4.02.02Z"/>
      <path class="cls-1" d="M1514.45,793.6c-4.36-.46-4.46-.36-4.04,4.01l4.04-4.01Z"/>
      <path class="cls-1" d="M2222.43,799.27c-.16-.13-3.87-.14-4.02-.02-4.24,3.44,8.23,3.49,4.02.02Z"/>
      <path class="cls-1" d="M1934.36,803.43c1.74-1.52-3.19-6.05-4.01-2-.6,2.96,3.38,2.55,4.01,2Z"/>
      <path class="cls-1" d="M97.05,801.1c-.16-.13-3.87-.14-4.02-.02-4.24,3.44,8.23,3.49,4.02.02Z"/>
      <path class="cls-1" d="M2342.17,811.89c-2.07-1.78-7.1,2.53-5.39,4,2.07,1.78,7.1-2.53,5.39-4Z"/>
      <path class="cls-1" d="M667.75,806.19c-.16-.13-3.87-.14-4.02-.02-4.24,3.44,8.23,3.49,4.02.02Z"/>
      <path class="cls-1" d="M1024.33,833.27c-1.41-.92-5.2.4-5.39,2.65,2.02,1.04,8.45-.65,5.39-2.65Z"/>
      <path class="cls-1" d="M627.23,838.32c-.39-.25-5.41-.45-5.37.63,1.9,4.22,8.18,1.14,5.37-.63Z"/>
      <path class="cls-1" d="M551.83,843.39c-2.05-2.07-5.74,4.06-2.03,3.99.88-.02,2.82-3.19,2.03-3.99Z"/>
      <path class="cls-1" d="M1286.67,862.63c.45-12.75-11.72-6.97-9.41-.05l9.41.05Z"/>
      <path class="cls-1" d="M28.2,850.61c-2.39-1.99-6,1.66-4.03,4.01.22.26,6.3-2.12,4.03-4.01Z"/>
      <path class="cls-1" d="M2570.7,882.85c-.16-.13-3.87-.14-4.02-.02-4.24,3.44,8.23,3.49,4.02.02Z"/>
      <path class="cls-1" d="M524.75,880.96l-4.04,4.01c4.36.46,4.46.36,4.04-4.01Z"/>
      <path class="cls-1" d="M579.94,881.2c-1.39-1.39-5.4,2.65-4.04,4.01s5.4-2.65,4.04-4.01Z"/>
      <path class="cls-1" d="M1274.46,888.14c5.72-5.64-7.9-3.26-4.02-.02.15.13,3.88.16,4.02.02Z"/>
      <path class="cls-1" d="M1091.34,902.19c-.16-.13-3.87-.14-4.02-.02-4.24,3.44,8.23,3.49,4.02.02Z"/>
      <path class="cls-1" d="M1219.2,904.08c-.16-.13-3.87-.14-4.02-.02-4.24,3.44,8.23,3.49,4.02.02Z"/>
      <path class="cls-1" d="M2395.56,918.45c-.16-.13-3.87-.14-4.02-.02-4.24,3.44,8.23,3.49,4.02.02Z"/>
      <path class="cls-1" d="M556.92,913.4c-.16-.13-3.87-.14-4.02-.02-4.24,3.44,8.23,3.49,4.02.02Z"/>
      <path class="cls-1" d="M941.84,928.47c2.05,2.07,5.74-4.06,2.03-3.99-.88.02-2.82,3.19-2.03,3.99Z"/>
      <path class="cls-1" d="M551.49,924.15c-.16-.13-3.87-.14-4.02-.02-4.24,3.44,8.23,3.49,4.02.02Z"/>
      <path class="cls-1" d="M582.44,926.97c-2.39-1.99-6,1.66-4.03,4.01.22.26,6.3-2.12,4.03-4.01Z"/>
      <path class="cls-1" d="M644.35,927.23c-4.36-.46-4.46-.36-4.04,4.01l4.04-4.01Z"/>
      <path class="cls-1" d="M188.05,928c-2.39-1.99-6,1.66-4.03,4.01.22.26,6.3-2.12,4.03-4.01Z"/>
      <path class="cls-1" d="M45.36,935.47l8.03-1.98c-1.81-3.9-3.42-5.45-8.01-4.76l-.02,6.74Z"/>
      <path class="cls-1" d="M2233.96,937.96l-4.04,4.01c4.36.46,4.46.36,4.04-4.01Z"/>
      <path class="cls-1" d="M948.53,933.9c-3.44-4.24-3.49,8.23-.02,4.02.13-.16.14-3.87.02-4.02Z"/>
      <path class="cls-1" d="M15.69,943.43c-.16-.13-3.87-.14-4.02-.02-4.24,3.44,8.23,3.49,4.02.02Z"/>
      <rect class="cls-1" x="750.6" y="947.87" width="4.04" height="4.04"/>
      <path class="cls-1" d="M4.91,946.08c-.16-.13-3.87-.14-4.02-.02-4.24,3.44,8.23,3.49,4.02.02Z"/>
      <path class="cls-1" d="M322.55,952.8c-1.39-1.39-5.4,2.65-4.04,4.01s5.4-2.65,4.04-4.01Z"/>
      <path class="cls-1" d="M1955.22,965.06c-.16-.13-3.87-.14-4.02-.02-4.24,3.44,8.23,3.49,4.02.02Z"/>
      <path class="cls-1" d="M1980.77,970.55c-4.36-.46-4.46-.36-4.04,4.01l4.04-4.01Z"/>
      <path class="cls-1" d="M1894.62,971.53c-.16-.13-3.87-.14-4.02-.02-4.24,3.44,8.23,3.49,4.02.02Z"/>
      <path class="cls-1" d="M2539.31,985c2.57-2.3-4.09-8.96-6.69-3.37-2.2,4.73,6.15,3.86,6.69,3.37Z"/>
      <path class="cls-1" d="M714.12,981.35c5.72-5.64-7.9-3.26-4.02-.02.15.13,3.88.16,4.02.02Z"/>
      <path class="cls-1" d="M2099.17,983.16c-.16-.13-3.87-.14-4.02-.02-4.24,3.44,8.23,3.49,4.02.02Z"/>
      <path class="cls-1" d="M2311.84,984.06c-.16-.13-3.87-.14-4.02-.02-4.24,3.44,8.23,3.49,4.02.02Z"/>
      <path class="cls-1" d="M1412.7,981.62c-2.26-2.58-6.13,5.29-2.03,5.34,1.39.02,2.84-4.42,2.03-5.34Z"/>
      <path class="cls-1" d="M1615.91,991.89c-.16-.13-3.87-.14-4.02-.02-4.24,3.44,8.23,3.49,4.02.02Z"/>
      <path class="cls-1" d="M1065.38,993.61c-3.44-4.24-3.49,8.23-.02,4.02.13-.16.14-3.87.02-4.02Z"/>
      <path class="cls-1" d="M2412.71,1001.98c-.16-.13-3.87-.14-4.02-.02-4.24,3.44,8.23,3.49,4.02.02Z"/>
      <path class="cls-1" d="M1455.68,1004.65c3.13-5.54-9.57-3.24-5.38,1.33.27.3,5.24-1.09,5.38-1.33Z"/>
      <path class="cls-1" d="M1035.72,1005.6c-.16-.13-3.87-.14-4.02-.02-4.24,3.44,8.23,3.49,4.02.02Z"/>
      <path class="cls-1" d="M965.66,1020.12c-.16-.13-3.87-.14-4.02-.02-4.24,3.44,8.23,3.49,4.02.02Z"/>
      <path class="cls-1" d="M782.6,1020.69c-3.44-4.24-3.49,8.23-.02,4.02.13-.16.14-3.87.02-4.02Z"/>
      <path class="cls-1" d="M1041.03,1021.78c-1.39-1.39-5.4,2.65-4.04,4.01s5.4-2.65,4.04-4.01Z"/>
      <path class="cls-1" d="M481.07,1024.81c-1.39-1.39-5.4,2.65-4.04,4.01s5.4-2.65,4.04-4.01Z"/>
      <path class="cls-1" d="M1178.28,1034.44l-3.33-2.68c-4.62,4.79-1.33,4.56,3.33,2.68Z"/>
      <path class="cls-1" d="M1096.14,1039.51l-4.04,4.01c4.36.46,4.46.36,4.04-4.01Z"/>
      <path class="cls-1" d="M2311.56,1050.01c-.16-.13-3.87-.14-4.02-.02-4.24,3.44,8.23,3.49,4.02.02Z"/>
      <path class="cls-1" d="M2568.64,1051.09c-.16-.13-3.87-.14-4.02-.02-4.24,3.44,8.23,3.49,4.02.02Z"/>
      <path class="cls-1" d="M1474.33,1047.83c-4.26-3.15-3.32,7.93,1.35,4.02.16-.14-1.18-3.9-1.35-4.02Z"/>
      <rect class="cls-1" x="1583.36" y="1049.64" width="4.04" height="4.04"/>
      <path class="cls-1" d="M1494.49,1058.68c-.16-.13-3.87-.14-4.02-.02-4.24,3.44,8.23,3.49,4.02.02Z"/>
      <rect class="cls-1" x="917.05" y="1057.6" width="4.04" height="4.04"/>
      <path class="cls-1" d="M506.51,1058.56c-.31-.28-6.48-1.13-5.37,1.96,1.75,4.9,8.38.78,5.37-1.96Z"/>
      <path class="cls-1" d="M400.15,1063.5c-1.39-1.39-5.4,2.65-4.04,4.01s5.4-2.65,4.04-4.01Z"/>
      <path class="cls-1" d="M540.12,1066.78c-.16-.13-3.87-.14-4.02-.02-4.24,3.44,8.23,3.49,4.02.02Z"/>
      <path class="cls-1" d="M20.55,1068.63c-.16-.13-3.87-.14-4.02-.02-4.24,3.44,8.23,3.49,4.02.02Z"/>
      <path class="cls-1" d="M1063.7,1073.02c-.16-.13-3.87-.14-4.02-.02-4.24,3.44,8.23,3.49,4.02.02Z"/>
      <path class="cls-1" d="M110.67,1083.82c-4.36-.46-4.46-.36-4.04,4.01l4.04-4.01Z"/>
      <path class="cls-1" d="M649.07,1086.08c-.16-.13-3.87-.14-4.02-.02-4.24,3.44,8.23,3.49,4.02.02Z"/>
      <path class="cls-1" d="M1254.74,1095.36l-4.03,4.01c2.59-1.37,4.89-.73,4.03-4.01Z"/>
      <path class="cls-1" d="M321.95,1094.13c-.16-.13-3.87-.14-4.02-.02-4.24,3.44,8.23,3.49,4.02.02Z"/>
      <path class="cls-1" d="M2553.62,1103.52l-4.04,4.01c4.36.46,4.46.36,4.04-4.01Z"/>
      <path class="cls-1" d="M662.46,1103.64c-.16-.13-3.87-.14-4.02-.02-4.24,3.44,8.23,3.49,4.02.02Z"/>
      <path class="cls-1" d="M1008.36,1110.49c-4.96-1.57-6.36,4.05-3.38,3.98.31,0,3.3-2.95,3.38-3.98Z"/>
      <path class="cls-1" d="M694.71,1115.89c-4.36-.46-4.46-.36-4.04,4.01l4.04-4.01Z"/>
      <path class="cls-1" d="M1638.22,1127.94c-.16-.13-3.87-.14-4.02-.02-4.24,3.44,8.23,3.49,4.02.02Z"/>
      <path class="cls-1" d="M98.39,1122.8c-1.39-1.39-5.4,2.65-4.04,4.01s5.4-2.65,4.04-4.01Z"/>
      <path class="cls-1" d="M2304.44,1141.51l-4.04,4.01c4.36.46,4.46.36,4.04-4.01Z"/>
      <path class="cls-1" d="M1132.06,1140.61l-4.04,4.01c4.36.46,4.46.36,4.04-4.01Z"/>
      <path class="cls-1" d="M428.05,1149.76c-.8-.84-3.4.82-4.03,2.02l2,3.34c.71.15,2.53-4.82,2.03-5.36Z"/>
      <path class="cls-1" d="M2347.44,1159.19c-.16-.13-3.87-.14-4.02-.02-4.24,3.44,8.23,3.49,4.02.02Z"/>
      <path class="cls-1" d="M1286.79,1156.07c-1.39-1.39-5.4,2.65-4.04,4.01,1.39,1.39,5.4-2.65,4.04-4.01Z"/>
      <rect class="cls-1" x="2064.77" y="1159.34" width="4.04" height="4.04"/>
      <path class="cls-1" d="M784.71,1157.99c-.16-.13-3.87-.14-4.02-.02-4.24,3.44,8.23,3.49,4.02.02Z"/>
      <path class="cls-1" d="M977.11,1180.32c.02-.88-1.46-2.49-2.02-2.67-5.03-1.58-5.22,4.43,2.02,2.67Z"/>
      <path class="cls-1" d="M594.8,1186.81c-2.39-1.99-6,1.66-4.03,4.01.22.26,6.3-2.12,4.03-4.01Z"/>
      <path class="cls-1" d="M2328.42,1200.83c-4.36-.46-4.46-.36-4.04,4.01l4.04-4.01Z"/>
      <path class="cls-1" d="M1993.25,1203.46c-.16-.13-3.87-.14-4.02-.02-4.24,3.44,8.23,3.49,4.02.02Z"/>
      <path class="cls-1" d="M2030.92,1207.64c5.72-5.64-7.9-3.26-4.02-.02.15.13,3.88.16,4.02.02Z"/>
      <path class="cls-1" d="M278.41,1205.67c-2.72-2.38-5.91,3.51-5.39,3.99.99.91,7.72-1.95,5.39-3.99Z"/>
      <path class="cls-1" d="M387.43,1208.83c-.12-.17-3.87-1.54-4.01-1.38-3.95,4.63,7.12,5.66,4.01,1.38Z"/>
      <path class="cls-1" d="M1457.46,1221.38c.15-.23.94-5.94-1.3-5.37-2.2,2.64-.82,8.67,1.3,5.37Z"/>
      <path class="cls-1" d="M2366.01,1223.88c-2.05-2.07-5.74,4.06-2.03,3.99.88-.02,2.82-3.19,2.03-3.99Z"/>
      <path class="cls-1" d="M434.48,1222.46c5.72-5.64-7.9-3.26-4.02-.02.15.13,3.88.16,4.02.02Z"/>
      <path class="cls-1" d="M2374.08,1226.6c-3.44-4.24-3.49,8.23-.02,4.02.13-.16.14-3.87.02-4.02Z"/>
      <path class="cls-1" d="M1021.34,1222.25c-1.39-1.39-5.4,2.65-4.04,4.01s5.4-2.65,4.04-4.01Z"/>
      <path class="cls-1" d="M1194.98,1227.01c2.05,2.07,5.74-4.06,2.03-3.99-.88.02-2.82,3.19-2.03,3.99Z"/>
      <path class="cls-1" d="M1855.83,1232.5c-4.36-.46-4.46-.36-4.04,4.01l4.04-4.01Z"/>
      <path class="cls-1" d="M2032.15,1235.93c-.16-.13-3.87-.14-4.02-.02-4.24,3.44,8.23,3.49,4.02.02Z"/>
      <path class="cls-1" d="M796.5,1236.11c-1.39-1.39-5.4,2.65-4.04,4.01s5.4-2.65,4.04-4.01Z"/>
      <path class="cls-1" d="M2189.55,1256.77c1.74-1.52-3.19-6.05-4.01-2-.6,2.96,3.38,2.55,4.01,2Z"/>
      <path class="cls-1" d="M324,1246.24l-4.04,4.01c4.36.46,4.46.36,4.04-4.01Z"/>
      <path class="cls-1" d="M1014.48,1254.53c-.16-.13-3.87-.14-4.02-.02-4.24,3.44,8.23,3.49,4.02.02Z"/>
      <path class="cls-1" d="M204.18,1253.81c-.16-.13-3.87-.14-4.02-.02-4.24,3.44,8.23,3.49,4.02.02Z"/>
      <path class="cls-1" d="M1692.85,1260.08l-4.04,4.01c4.36.46,4.46.36,4.04-4.01Z"/>
      <path class="cls-1" d="M831.38,1263.16c5.72-5.64-7.9-3.26-4.02-.02.15.13,3.88.16,4.02.02Z"/>
      <path class="cls-1" d="M823.31,1261.8c-3.28-.89-2.65,1.42-4.05,4l4.05-4Z"/>
      <path class="cls-1" d="M930.96,1271.68c-6.63-1.75-7.03,8.05-2.67,4.72.56-.43,2.88-4.55,2.67-4.72Z"/>
      <path class="cls-1" d="M781.54,1272.38c-1.17-1.1-4.89,1.58-4.04,4,6.18,4.38,5.95-2.21,4.04-4Z"/>
      <path class="cls-1" d="M1253.97,1277.07c-.16-.13-3.87-.14-4.02-.02-4.24,3.44,8.23,3.49,4.02.02Z"/>
      <path class="cls-1" d="M2513.83,1286.4c2.05,2.07,5.74-4.06,2.03-3.99-.88.02-2.82,3.19-2.03,3.99Z"/>
      <path class="cls-1" d="M1979.44,1285.51c-.16-.13-3.87-.14-4.02-.02-4.24,3.44,8.23,3.49,4.02.02Z"/>
      <path class="cls-1" d="M158.29,1285.9l4.03-4.01c-2.59,1.37-4.89.73-4.03,4.01Z"/>
      <path class="cls-1" d="M222.88,1286.19c-1.41-.92-5.2.4-5.39,2.65,2.02,1.04,8.45-.65,5.39-2.65Z"/>
      <path class="cls-1" d="M737.04,1292.39c-1.39-1.39-5.4,2.65-4.04,4.01s5.4-2.65,4.04-4.01Z"/>
      <path class="cls-1" d="M221.51,1292.92c-2.07-1.78-7.1,2.53-5.39,4,2.07,1.78,7.1-2.53,5.39-4Z"/>
      <path class="cls-1" d="M2073.6,1300.71c-.16-.13-3.87-.14-4.02-.02-4.24,3.44,8.23,3.49,4.02.02Z"/>
      <path class="cls-1" d="M887.73,1306.49c-.16-.13-3.87-.14-4.02-.02-4.24,3.44,8.23,3.49,4.02.02Z"/>
      <path class="cls-1" d="M543.15,1310.41c1.15.75,5.32-.58,5.35-1.99.08-3.56-8.38.01-5.35,1.99Z"/>
      <path class="cls-1" d="M734.24,1317.96c-.3-.33-5.21,1.12-5.37,1.34-3.35,4.38,9.67,3.37,5.37-1.34Z"/>
      <path class="cls-1" d="M2393.85,1326.29c-.16-.13-3.87-.14-4.02-.02-4.24,3.44,8.23,3.49,4.02.02Z"/>
      <path class="cls-1" d="M1662.96,1325.91c-.16-.13-3.87-.14-4.02-.02-4.24,3.44,8.23,3.49,4.02.02Z"/>
      <rect class="cls-1" x="1474.49" y="1331.84" width="4.04" height="4.04"/>
      <path class="cls-1" d="M2380.33,1341.04c-.16-.13-3.87-.14-4.02-.02-4.24,3.44,8.23,3.49,4.02.02Z"/>
      <path class="cls-1" d="M697.81,1339.34l-4.03,4.01c2.59-1.37,4.89-.73,4.03-4.01Z"/>
      <path class="cls-1" d="M1491.93,1346.72c-4.36-.46-4.46-.36-4.04,4.01l4.04-4.01Z"/>
      <path class="cls-1" d="M338.41,1343.22c-7.23-1.82-7.09,4.19-2.05,2.65.56-.17,2.06-1.77,2.05-2.65Z"/>
      <path class="cls-1" d="M765.08,1346.35c-5.23-.81-4.16.64-4.04,5.35l4-2.7.04-2.65Z"/>
      <path class="cls-1" d="M1047.65,1373.09c1.44.51,5.35,1.87,5.34-.63,0-2.07-5.14-2.19-5.34.63Z"/>
      <path class="cls-1" d="M1494.51,1372.31c-.16-.13-3.87-.14-4.02-.02-4.24,3.44,8.23,3.49,4.02.02Z"/>
      <path class="cls-1" d="M85.25,1367.72c-4.36-.46-4.46-.36-4.04,4.01l4.04-4.01Z"/>
      <path class="cls-1" d="M2380.17,1378.73c-3.44-4.24-3.49,8.23-.02,4.02.13-.16.14-3.87.02-4.02Z"/>
      <path class="cls-1" d="M2299.34,1394.54c-.16-.13-3.87-.14-4.02-.02-4.24,3.44,8.23,3.49,4.02.02Z"/>
      <path class="cls-1" d="M2447.37,1401.89c-.16-.13-3.87-.14-4.02-.02-4.24,3.44,8.23,3.49,4.02.02Z"/>
      <path class="cls-1" d="M1470.14,1407.18c2.16,1.85,8.43-2.52,3.38-5.35-.5.8-3.62,5.14-3.38,5.35Z"/>
      <path class="cls-1" d="M608.62,1422.42c-4.36-.46-4.46-.36-4.04,4.01l4.04-4.01Z"/>
      <path class="cls-1" d="M545.35,1423.5c-.16-.13-3.87-.14-4.02-.02-4.24,3.44,8.23,3.49,4.02.02Z"/>
      <rect class="cls-1" x="719.97" y="1424.11" width="3.42" height="4.29" transform="translate(-859.45 1660.89) rotate(-71.6)"/>
      <path class="cls-1" d="M2079.76,1436.69l-4.04,4.01c4.36.46,4.46.36,4.04-4.01Z"/>
      <path class="cls-1" d="M1989.56,1440.35c-.16-.13-3.87-.14-4.02-.02-4.24,3.44,8.23,3.49,4.02.02Z"/>
      <path class="cls-1" d="M499.51,1440.8c-1.95-3.05-5.6,5.38-2.03,5.34,1.41-.02,2.78-4.18,2.03-5.34Z"/>
      <path class="cls-1" d="M2531.93,1458.78c-.16-.13-3.87-.14-4.02-.02-4.24,3.44,8.23,3.49,4.02.02Z"/>
      <path class="cls-1" d="M2041.98,1458.06c-1.88-2.29-4.31,3.77-4.05,4,2.33,1.99,6.02-1.59,4.05-4Z"/>
      <path class="cls-1" d="M2195.42,1460.06c-.16-.13-3.87-.14-4.02-.02-4.24,3.44,8.23,3.49,4.02.02Z"/>
      <path class="cls-1" d="M2062.16,1460.84c-.16-.13-3.87-.14-4.02-.02-4.24,3.44,8.23,3.49,4.02.02Z"/>
      <path class="cls-1" d="M1896.59,1462.84c-3.44-4.24-3.49,8.23-.02,4.02.13-.16.14-3.87.02-4.02Z"/>
      <path class="cls-1" d="M2552.08,1468.29c-3.44-4.24-3.49,8.23-.02,4.02.13-.16.14-3.87.02-4.02Z"/>
      <path class="cls-1" d="M1082.24,1464.79c-1.52-1.74-6.05,3.19-2,4.01,2.96.6,2.55-3.38,2-4.01Z"/>
      <path class="cls-1" d="M1393.16,1467.45c-4.36-.46-4.46-.36-4.04,4.01l4.04-4.01Z"/>
      <path class="cls-1" d="M1498.14,1469.24c-.16-.13-3.87-.14-4.02-.02-4.24,3.44,8.23,3.49,4.02.02Z"/>
      <path class="cls-1" d="M1819.81,1477.32c-3.44-4.24-3.49,8.23-.02,4.02.13-.16.14-3.87.02-4.02Z"/>
      <path class="cls-1" d="M137.26,1480.99c5.72-5.64-7.9-3.26-4.02-.02.15.13,3.88.16,4.02.02Z"/>
      <path class="cls-1" d="M2377.02,1490.42l4.03-4.01c-2.59,1.37-4.89.73-4.03,4.01Z"/>
      <rect class="cls-1" x="1201.89" y="1500.29" width="4.04" height="4.04" transform="translate(-308.49 2693.53) rotate(-89.52)"/>
      <path class="cls-1" d="M98.16,1496.99c-.16-.13-3.87-.14-4.02-.02-4.24,3.44,8.23,3.49,4.02.02Z"/>
      <path class="cls-1" d="M1678.34,1510.37c-3.44-4.24-3.49,8.23-.02,4.02.13-.16.14-3.87.02-4.02Z"/>
      <path class="cls-1" d="M2461.69,1516.36c-.53-.51-5.52,1.27-5.38,1.98l3.33,2.03c1.2-.62,2.89-3.21,2.05-4.01Z"/>
      <path class="cls-1" d="M1860.03,1515.18c-.16-.13-3.87-.14-4.02-.02-4.24,3.44,8.23,3.49,4.02.02Z"/>
      <path class="cls-1" d="M2070,1521.43c1.52,1.74,6.05-3.19,2-4.01-2.96-.6-2.55,3.38-2,4.01Z"/>
      <path class="cls-1" d="M785.83,1532.19c-.16-.13-3.87-.14-4.02-.02-4.24,3.44,8.23,3.49,4.02.02Z"/>
      <path class="cls-1" d="M1158.65,1539.13c1.39-1.39-2.65-5.4-4.01-4.04s2.65,5.4,4.01,4.04Z"/>
      <path class="cls-1" d="M453.36,1533.48c-1.39-1.39-5.4,2.65-4.04,4.01s5.4-2.65,4.04-4.01Z"/>
      <path class="cls-1" d="M1678.2,1545.35c2.05,2.07,5.74-4.06,2.03-3.99-.88.02-2.82,3.19-2.03,3.99Z"/>
      <path class="cls-1" d="M2185.61,1552.9c-2.6-1.91-8.01,1.22-5.39,3.99,2.4,2.54,6.02-3.53,5.39-3.99Z"/>
      <path class="cls-1" d="M1943.32,1553.22c-1.88-2.29-4.31,3.77-4.05,4,2.33,1.99,6.02-1.59,4.05-4Z"/>
      <path class="cls-1" d="M1123.59,1556.5l-4.05,4c3.28.89,2.65-1.42,4.05-4Z"/>
      <path class="cls-1" d="M1142.42,1560.62c-1.66.73-7.33-2.67-8.04.62-1.04,4.82,7.71,3.75,8.04-.62Z"/>
      <path class="cls-1" d="M1128.95,1560.56c-.16-.13-3.87-.14-4.02-.02-4.24,3.44,8.23,3.49,4.02.02Z"/>
      <path class="cls-1" d="M773.58,1567.14c-9.79-2.09-9.31,6.07-2.21,4.09,1.02-.28,1.53-3.02,2.21-4.09Z"/>
      <path class="cls-1" d="M1119.46,1576.67c-2.05-2.07-5.74,4.06-2.03,3.99.88-.02,2.82-3.19,2.03-3.99Z"/>
      <path class="cls-1" d="M1182.68,1586.36l-4.04,4.01c4.36.46,4.46.36,4.04-4.01Z"/>
      <path class="cls-1" d="M1891.99,1596.06c1.74-1.52-3.19-6.05-4.01-2-.6,2.96,3.38,2.55,4.01,2Z"/>
      <path class="cls-1" d="M1597.13,1617.73c-.12-.17-3.87-1.54-4.01-1.38-3.95,4.63,7.12,5.66,4.01,1.38Z"/>
      <path class="cls-1" d="M1703.42,1626.24c-4.2-.99-5.12,1.44-5.38,5.35l4.75-2.63.64-2.72Z"/>
      <path class="cls-1" d="M249.73,1624.16c-.16-.13-3.87-.14-4.02-.02-4.24,3.44,8.23,3.49,4.02.02Z"/>
      <path class="cls-1" d="M1125.96,1630.54c-.16-.13-3.87-.14-4.02-.02-4.24,3.44,8.23,3.49,4.02.02Z"/>
      <path class="cls-1" d="M824.44,1633.31c-1.39-1.39-5.4,2.65-4.04,4.01s5.4-2.65,4.04-4.01Z"/>
      <path class="cls-1" d="M1080.17,1635.73c-.16-.13-3.87-.14-4.02-.02-4.24,3.44,8.23,3.49,4.02.02Z"/>
      <path class="cls-1" d="M1887.77,1640.49c-.12-.17-3.21-.58-4.01-1.38-.43,2.68,1.64,4.48,4,4.05-.08-.82.23-2.36.02-2.67Z"/>
      <path class="cls-1" d="M2198.68,1644.48c-.16-.13-3.87-.14-4.02-.02-4.24,3.44,8.23,3.49,4.02.02Z"/>
      <path class="cls-1" d="M974.89,1648.42c.28-.16,4.38-5.73.94-6.4-1.11,3.47-2.58,2.95-6.06,2.68,1.06,2.72,1.66,5.7,5.12,3.73Z"/>
      <path class="cls-1" d="M1940.21,1652.81c-.16-.13-3.87-.14-4.02-.02-4.24,3.44,8.23,3.49,4.02.02Z"/>
      <path class="cls-1" d="M1833.83,1663.13c-.16-.13-3.87-.14-4.02-.02-4.24,3.44,8.23,3.49,4.02.02Z"/>
      <path class="cls-1" d="M2280.7,1666.36c-.16-.13-3.87-.14-4.02-.02-4.24,3.44,8.23,3.49,4.02.02Z"/>
      <path class="cls-1" d="M779.9,1661.39c-3.44-4.24-3.49,8.23-.02,4.02.13-.16.14-3.87.02-4.02Z"/>
      <rect class="cls-1" x="1808.23" y="1668.41" width="4.04" height="4.04"/>
      <path class="cls-1" d="M541.62,1669.8c-3.44-4.24-3.49,8.23-.02,4.02.13-.16.14-3.87.02-4.02Z"/>
      <path class="cls-1" d="M797.33,1677.61c-4.36-.46-4.46-.36-4.04,4.01l4.04-4.01Z"/>
      <path class="cls-1" d="M447.31,1690.93c2.2-2.03-1.17-6.94-4.03-.02,1.09-.12,3.72.31,4.03.02Z"/>
      <path class="cls-1" d="M61.01,1689.32c-2.05-2.07-5.74,4.06-2.03,3.99.88-.02,2.82-3.19,2.03-3.99Z"/>
      <path class="cls-1" d="M896.87,1692.84c-3.44-4.24-3.49,8.23-.02,4.02.13-.16.14-3.87.02-4.02Z"/>
      <rect class="cls-1" x="1030.56" y="1706.88" width="8.68" height="2.71" transform="translate(-842.74 2389.08) rotate(-78.72)"/>
    </g>
  </g>
</svg>